<?xml version="1.0" encoding="UTF-8" standalone="no"?>
<!-- Created with Inkscape (http://www.inkscape.org/) -->

<svg
   width="512"
   height="512"
   viewBox="0 0 512 512"
   version="1.1"
   id="svg1"
   inkscape:version="1.4.3 (0d15f75042, 2025-12-25)"
   sodipodi:docname="lash.svg"
   inkscape:export-filename="lash.png"
   inkscape:export-xdpi="192"
   inkscape:export-ydpi="192"
   xmlns:inkscape="http://www.inkscape.org/namespaces/inkscape"
   xmlns:sodipodi="http://sodipodi.sourceforge.net/DTD/sodipodi-0.dtd"
   xmlns:xlink="http://www.w3.org/1999/xlink"
   xmlns="http://www.w3.org/2000/svg"
   xmlns:svg="http://www.w3.org/2000/svg">
  <sodipodi:namedview
     id="namedview1"
     pagecolor="#505050"
     bordercolor="#ffffff"
     borderopacity="1"
     inkscape:showpageshadow="0"
     inkscape:pageopacity="0"
     inkscape:pagecheckerboard="1"
     inkscape:deskcolor="#505050"
     inkscape:document-units="px"
     inkscape:zoom="0.53033009"
     inkscape:cx="341.29687"
     inkscape:cy="345.06811"
     inkscape:window-width="1906"
     inkscape:window-height="1023"
     inkscape:window-x="0"
     inkscape:window-y="0"
     inkscape:window-maximized="0"
     inkscape:current-layer="layer1" />
  <defs
     id="defs1">
    <linearGradient
       id="linearGradient13"
       inkscape:collect="always">
      <stop
         style="stop-color:#e66a00;stop-opacity:1;"
         offset="0"
         id="stop13" />
      <stop
         style="stop-color:#e63600;stop-opacity:1;"
         offset="1"
         id="stop14" />
    </linearGradient>
    <linearGradient
       inkscape:collect="always"
       xlink:href="#linearGradient13"
       id="linearGradient15"
       x1="171.00002"
       y1="377.71875"
       x2="351.66669"
       y2="377.71875"
       gradientUnits="userSpaceOnUse" />
  </defs>
  <g
     inkscape:label="Layer 1"
     inkscape:groupmode="layer"
     id="layer1">
    <path
       id="rect10"
       style="fill:url(#linearGradient15);fill-opacity:1;stroke:#000000;stroke-width:18;stroke-linecap:butt;stroke-linejoin:round;stroke-dasharray:none;stroke-opacity:1;paint-order:stroke markers fill"
       d="m 19.333984,116.28125 v 45.47461 L 44,186.14062 114.66602,256 44,325.85938 19.333984,350.24414 v 45.47461 L 90,325.85938 160.66602,256 90,186.14062 Z m 419.130856,98.26563 c -2.5366,0 -4.13867,1.20055 -4.13867,3.20312 0,1.73557 0.80142,2.26953 2.9375,2.26953 h 7.3418 l -14.81836,69.69141 h -6.14258 c -2.6701,0 -4.27148,1.20055 -4.27148,3.20312 0,1.60206 0.93423,2.26953 3.07031,2.26953 h 17.62305 c 2.6701,0 4.40625,-1.33531 4.40625,-3.33789 0,-1.46855 -0.93549,-2.13476 -3.20508,-2.13476 h -6.00781 l 7.20898,-34.04492 1.73633,-1.73438 c 9.07834,-8.54432 13.35058,-10.81445 20.69336,-10.81445 11.21442,0 14.01758,6.14177 14.01758,10.81445 0,0.66752 -0.13339,1.86821 -0.4004,2.80274 l -6.9414,32.97656 h -6.14258 c -2.5366,0 -4.13867,1.20055 -4.13867,3.20312 0,1.60206 0.93618,2.26953 3.07226,2.26953 h 17.6211 c 2.53659,0 4.27344,-1.33531 4.27344,-3.33789 0,-1.46855 -0.9355,-2.13476 -3.20508,-2.13476 h -6.00781 l 7.07617,-33.37696 c 0.26701,-1.33505 0.40039,-2.53674 0.40039,-3.73828 0,-9.07834 -6.94265,-14.95312 -17.62305,-14.95312 -8.1438,0 -14.41857,3.07103 -22.96289,11.21484 l 7.20898,-34.31054 z m -238.84179,5.47265 c -2.5366,0 -4.13867,1.2025 -4.13867,3.20508 0,1.60206 0.80267,2.26953 3.07226,2.26953 h 12.81641 l -13.61914,64.2168 H 184.9375 c -2.6701,0 -4.27148,1.19986 -4.27148,3.33594 0,1.46854 0.93423,2.13671 3.07031,2.13671 h 60.21094 l 5.60742,-26.83398 c 0.13351,-0.66753 0.26758,-1.33581 0.26758,-1.73633 0,-1.06804 -0.93449,-1.86914 -2.26954,-1.86914 -1.73557,0 -2.93863,1.20238 -3.47265,3.60547 l -4.53906,21.36133 h -36.3125 l 13.61718,-64.2168 h 12.81641 c 2.6701,0 4.27344,-1.33532 4.27344,-3.33789 0,-1.60206 -0.80269,-2.13672 -3.07227,-2.13672 z m 104.40234,17.62305 c -4.00515,0 -24.83203,2.66969 -24.83203,7.60937 0,1.20155 0.93391,2.13672 2.00195,2.13672 3.87165,0 10.81318,-4.27148 21.22657,-4.27148 8.67781,0 14.28515,3.60442 14.28515,9.07812 0,0.80103 7e-4,1.20162 -0.13281,1.86914 l -2.00195,9.47852 c -7.47628,-2.13608 -11.48182,-2.80274 -17.62305,-2.80274 -18.42369,0 -32.70899,9.87814 -32.70899,22.82813 0,8.54432 6.67564,13.75195 17.62305,13.75195 9.34535,0 18.02366,-3.47224 27.76953,-11.08203 l -1.86914,8.94531 h 12.68164 c 2.6701,0 4.27344,-1.33531 4.27344,-3.33789 0,-1.60206 -0.80268,-2.13476 -3.07227,-2.13476 h -7.20898 l 7.61133,-35.64649 c 0.26701,-1.06804 0.26562,-1.86877 0.26562,-3.07031 0,-7.8768 -7.47516,-13.35156 -18.28906,-13.35156 z m 79.43555,0 c -14.55204,0 -26.16797,7.87649 -26.16797,17.75586 0,9.74587 11.48221,11.08235 20.56055,12.15039 10.81391,1.20154 18.02343,4.00455 18.02343,10.27929 0,7.7433 -10.41399,14.01758 -23.23047,14.01758 -10.6804,0 -18.42382,-4.13818 -18.42382,-9.8789 0,-0.53402 0.40039,-2.13579 0.40039,-3.07032 0,-1.06804 -0.93517,-2.0039 -2.13672,-2.0039 -1.86907,0 -3.0695,1.20238 -3.60352,3.60547 l -2.26953,11.08007 c -0.1335,0.40052 -0.26758,1.33651 -0.26758,1.60352 0,1.06804 1.06868,2.00195 2.13672,2.00195 2.6701,0 3.20357,-2.66917 3.8711,-5.07226 4.53917,4.93968 10.94718,7.3418 19.625,7.34179 16.42112,0 30.03906,-9.47893 30.03906,-20.69335 0,-3.20412 -1.86896,-6.94205 -4.53906,-9.07813 -10.01288,-8.1438 -34.17774,-2.80397 -34.17774,-13.48437 0,-5.87422 9.34512,-11.21485 19.625,-11.21485 10.01288,0 16.02149,5.20697 16.02149,7.47656 l -0.40039,4.13868 c 0.66752,1.06804 1.33373,1.60351 2.13476,1.60351 1.73557,0 3.07145,-1.33519 3.60547,-3.73828 l 1.86914,-9.21289 c 0.1335,-0.66753 0.26758,-1.33385 0.26758,-1.73438 0,-1.06803 -0.93518,-2.0039 -2.13672,-2.0039 -1.73557,0 -3.07145,1.46983 -3.60547,4.27344 -3.87164,-4.13866 -9.4774,-6.14258 -17.2207,-6.14258 z m -86.64453,28.57031 c 6.00772,0 12.01483,0.80041 16.6875,2.00195 l -2.53711,12.01563 c -10.94741,8.41081 -18.55688,11.61523 -28.30274,11.61523 -8.14381,0 -12.8164,-3.47079 -12.8164,-9.47851 0,-9.21185 11.61567,-16.1543 26.96875,-16.1543 z M 180,359.71875 v 36 h 162.66602 v -36 z m 186.87891,0 -0.98438,32.02344 41.89453,16.20898 -14.84961,-31.1914 z m 57.06054,50.74414 -17.85937,10.31055 14.97265,6.44726 10.02539,-4.39453 z m -24.9375,19.32617 -39.07226,4.09375 34.01367,19.93164 23.16211,7.10157 z"
       sodipodi:nodetypes="cccccccccccsssccsssssscccssccssssssccssccssssccsssccssccccsssssssssccsssccsssccsssscsssssccsscsscssccsccsscssccssscccccccccccccccccccc" />
  </g>
</svg>
